<?xml version="1.0" encoding="utf-8"?>
<!-- Generator: Adobe Illustrator 22.1.0, SVG Export Plug-In . SVG Version: 6.00 Build 0)  -->
<svg version="1.1" xmlns="http://www.w3.org/2000/svg" xmlns:xlink="http://www.w3.org/1999/xlink" x="0px" y="0px"
	 viewBox="0 0 405.8 97.5" style="enable-background:new 0 0 405.8 97.5;" xml:space="preserve">
<style type="text/css">
	.st0{fill:#FFFF00;}
</style>
<g id="Layer_2">
</g>
<g id="Layer_3">
	<path d="M89.7,66V20.8h-23v41c-0.5,2.5-2.8,2.5-2.8,2.5s-1.6,0.2-4.3,0.1c-2.8,0.3-3.5-2.5-3.5-2.5v-12H32.2c0,0-0.1,9.8-0.1,17.4
		c0,7.8,7.6,9.2,7.6,9.2s37.2,0,44.2,0C90.4,75.2,89.7,66,89.7,66z"/>
	<rect x="240.2" y="21.2" width="24.4" height="54.4"/>
	<rect x="269.7" y="40.5" width="15.2" height="15.6"/>
	<polygon points="308.4,21.2 291,21.2 291,75.6 315.3,75.6 315.3,55.6 337.4,55.6 337.4,41.4 315.3,41.4 315.3,34.8 341.2,34.8 
		341.2,21.2 315.3,21.2 	"/>
	<rect x="349.2" y="21.2" width="24.4" height="54.4"/>
	<polygon points="202.9,55.6 208.1,55.6 208.1,75.6 232.5,75.6 232.5,21.2 208.1,21.2 208.1,40 202.9,40 202.9,21.2 178.6,21.2 
		178.6,75.6 202.9,75.6 	"/>
	<path d="M158.1,67.7c0,0,0-7.6,0-13.7c0-6.1-5.5-6.9-5.5-6.9c5.5,0.2,5.5-6.5,5.5-6.5s0-5.1,0-12c0-6.9-6.5-7.8-6.5-7.8H99.8v55.8
		c0,0,43.8,0,51,0C157.9,76.6,158.1,67.7,158.1,67.7z M133,65.4H123V53.7h10C138.6,60.2,133,65.4,133,65.4z M133,42.6H123V31h10
		C138.6,37.5,133,42.6,133,42.6z"/>
</g>
</svg>
